{"accessors" : [{"bufferView" : 0, "byteOffset" : 0, "componentType" : 5123, "count" : 7446, "type" : "SCALAR", "max" : [1450], "min" : [0]}, {"bufferView" : 1, "byteOffset" : 0, "componentType" : 5126, "count" : 1451, "type" : "VEC3", "max" : [0.3635190725326538, 10.617712020874023, 0.5904865264892578], "min" : [-0.3605958819389343, -11.612140655517578, -0.5899654030799866], "name" : "POSITION"}, {"bufferView" : 1, "byteOffset" : 12, "componentType" : 5126, "count" : 1451, "type" : "VEC3", "max" : [1.0000042915344238, 0.8195294141769409, 1.0000044107437134], "min" : [-0.9999608993530273, -0.8433849811553955, -1.0000044107437134], "name" : "NORMAL"}, {"bufferView" : 1, "byteOffset" : 24, "componentType" : 5126, "count" : 1451, "type" : "VEC2", "max" : [1, 2], "min" : [0, 0.9999998807907104], "name" : "TEXCOORD_0"}, {"bufferView" : 0, "byteOffset" : 14892, "componentType" : 5123, "count" : 108, "type" : "SCALAR", "max" : [71], "min" : [0]}, {"bufferView" : 2, "byteOffset" : 0, "componentType" : 5126, "count" : 72, "type" : "VEC3", "max" : [0.29700106382369995, -9.860116958618164, 0.29552432894706726], "min" : [-0.2940780222415924, -11.945066452026367, -0.2955547273159027], "name" : "POSITION"}, {"bufferView" : 2, "byteOffset" : 12, "componentType" : 5126, "count" : 72, "type" : "VEC3", "max" : [1.0000044107437134, 1.0000042915344238, 1.0000044107437134], "min" : [-1.0000044107437134, -1.0000044107437134, -1.0000044107437134], "name" : "NORMAL"}, {"bufferView" : 2, "byteOffset" : 24, "componentType" : 5126, "count" : 72, "type" : "VEC2", "max" : [0.875, 2], "min" : [0.125, 1], "name" : "TEXCOORD_0"}], "asset" : {"generator" : "Aspose.3D 24.9.1", "version" : "2.0"}, "buffers" : [{"uri" : "data:application/octet-stream;base64,", "byteLength" : 63856}], "bufferViews" : [{"buffer" : 0, "byteOffset" : 0, "byteLength" : 15108, "target" : 34963}, {"buffer" : 0, "byteOffset" : 15112, "byteLength" : 46432, "byteStride" : 32, "target" : 34962}, {"buffer" : 0, "byteOffset" : 61548, "byteLength" : 2304, "byteStride" : 32, "target" : 34962}], "images" : [{"uri" : "data:image/png;base64,"}], "materials" : [{"name" : "Material.001", "pbrMetallicRoughness" : {"baseColorFactor" : [1, 1, 1, 1], "baseColorTexture" : {"index" : 0, "texCoord" : 0}, "metallicFactor" : 1, "roughnessFactor" : 0.4583333432674408}, "emissiveFactor" : [0, 0, 0], "alphaMode" : "OPAQUE", "doubleSided" : true}, {"name" : "Material", "pbrMetallicRoughness" : {"baseColorFactor" : [0.03521772101521492, 0.010074700228869915, 0, 1], "metallicFactor" : 0, "roughnessFactor" : 0.4000000059604645}, "emissiveFactor" : [0, 0, 0], "alphaMode" : "OPAQUE", "doubleSided" : true}], "meshes" : [{"primitives" : [{"attributes" : {"POSITION" : 1, "NORMAL" : 2, "TEXCOORD_0" : 3}, "indices" : 0, "material" : 0, "mode" : 4}, {"attributes" : {"POSITION" : 5, "NORMAL" : 6, "TEXCOORD_0" : 7}, "indices" : 4, "material" : 1, "mode" : 4}]}], "nodes" : [{"matrix" : [-1.3435885648505064E-07, 0, -1.0000001343588565, 0, 0, 0.04854750633239746, 0, 0, 1.0000001343588565, 0, -1.3435885648505064E-07, 0, 0, 0, 0, 1], "mesh" : 0, "name" : "Cylinder.002"}], "samplers" : [{"magFilter" : 9729, "minFilter" : 9987, "wrapS" : 10497, "wrapT" : 10497}], "scene" : 0, "scenes" : [{"nodes" : [0]}], "textures" : [{"sampler" : 0, "source" : 0, "name" : ""}]}